<mxfile host="app.diagrams.net" modified="2023-02-21T06:06:35.122Z" agent="5.0 (Windows NT 10.0; Win64; x64) AppleWebKit/537.36 (KHTML, like Gecko) Chrome/110.0.0.0 Safari/537.36" etag="XSlvnynqoeeFmKUT5DDt" version="20.8.20" type="github">
  <diagram id="Z87XCZslrCXwQrkr19RX" name="Page-1">
    <mxGraphModel dx="2514" dy="832" grid="1" gridSize="10" guides="1" tooltips="1" connect="1" arrows="1" fold="1" page="1" pageScale="1" pageWidth="827" pageHeight="1169" math="0" shadow="0">
      <root>
        <mxCell id="0" />
        <mxCell id="1" parent="0" />
        <mxCell id="VE9qQbwJ7asa3l0-s3IV-37" value="" style="rounded=0;whiteSpace=wrap;html=1;" vertex="1" parent="1">
          <mxGeometry x="-740" y="60" width="820" height="720" as="geometry" />
        </mxCell>
        <mxCell id="VE9qQbwJ7asa3l0-s3IV-38" value="" style="endArrow=none;dashed=1;html=1;dashPattern=1 3;strokeWidth=2;rounded=0;entryX=0.5;entryY=1;entryDx=0;entryDy=0;startArrow=none;" edge="1" parent="1" source="VE9qQbwJ7asa3l0-s3IV-51" target="VE9qQbwJ7asa3l0-s3IV-50">
          <mxGeometry width="50" height="50" relative="1" as="geometry">
            <mxPoint x="-522.25" y="650" as="sourcePoint" />
            <mxPoint x="-522.25" y="280" as="targetPoint" />
          </mxGeometry>
        </mxCell>
        <mxCell id="VE9qQbwJ7asa3l0-s3IV-39" value="" style="rounded=0;whiteSpace=wrap;html=1;" vertex="1" parent="1">
          <mxGeometry x="-730" y="70" width="120" height="40" as="geometry" />
        </mxCell>
        <mxCell id="VE9qQbwJ7asa3l0-s3IV-40" value="room.js" style="rounded=0;whiteSpace=wrap;html=1;" vertex="1" parent="1">
          <mxGeometry x="-700" y="200" width="90" height="30" as="geometry" />
        </mxCell>
        <mxCell id="VE9qQbwJ7asa3l0-s3IV-41" value="RoomModule/&lt;br&gt;Livestream.js" style="rounded=0;whiteSpace=wrap;html=1;" vertex="1" parent="1">
          <mxGeometry x="-88.25" y="200" width="90" height="30" as="geometry" />
        </mxCell>
        <mxCell id="VE9qQbwJ7asa3l0-s3IV-42" value="" style="endArrow=none;dashed=1;html=1;dashPattern=1 3;strokeWidth=2;rounded=0;entryX=0.411;entryY=1.067;entryDx=0;entryDy=0;entryPerimeter=0;startArrow=none;" edge="1" parent="1" target="VE9qQbwJ7asa3l0-s3IV-40">
          <mxGeometry width="50" height="50" relative="1" as="geometry">
            <mxPoint x="-663.5229314790217" y="265" as="sourcePoint" />
            <mxPoint x="-303" y="480" as="targetPoint" />
          </mxGeometry>
        </mxCell>
        <mxCell id="VE9qQbwJ7asa3l0-s3IV-43" value="" style="endArrow=none;dashed=1;html=1;dashPattern=1 3;strokeWidth=2;rounded=0;entryX=0.5;entryY=1;entryDx=0;entryDy=0;startArrow=none;" edge="1" parent="1" source="VE9qQbwJ7asa3l0-s3IV-62" target="VE9qQbwJ7asa3l0-s3IV-41">
          <mxGeometry width="50" height="50" relative="1" as="geometry">
            <mxPoint x="-187.75" y="690" as="sourcePoint" />
            <mxPoint x="-41.5" y="280" as="targetPoint" />
          </mxGeometry>
        </mxCell>
        <mxCell id="VE9qQbwJ7asa3l0-s3IV-44" value="" style="endArrow=none;html=1;rounded=0;" edge="1" parent="1">
          <mxGeometry width="50" height="50" relative="1" as="geometry">
            <mxPoint x="-697" y="180" as="sourcePoint" />
            <mxPoint x="-287" y="180" as="targetPoint" />
          </mxGeometry>
        </mxCell>
        <mxCell id="VE9qQbwJ7asa3l0-s3IV-45" value="" style="endArrow=none;html=1;rounded=0;" edge="1" parent="1">
          <mxGeometry width="50" height="50" relative="1" as="geometry">
            <mxPoint x="-220" y="180" as="sourcePoint" />
            <mxPoint y="180" as="targetPoint" />
          </mxGeometry>
        </mxCell>
        <mxCell id="VE9qQbwJ7asa3l0-s3IV-46" value="Client" style="text;strokeColor=none;align=center;fillColor=none;html=1;verticalAlign=middle;whiteSpace=wrap;rounded=0;" vertex="1" parent="1">
          <mxGeometry x="-697" y="130" width="60" height="30" as="geometry" />
        </mxCell>
        <mxCell id="VE9qQbwJ7asa3l0-s3IV-47" value="Server" style="text;strokeColor=none;align=center;fillColor=none;html=1;verticalAlign=middle;whiteSpace=wrap;rounded=0;" vertex="1" parent="1">
          <mxGeometry x="-239.5" y="130" width="60" height="30" as="geometry" />
        </mxCell>
        <mxCell id="VE9qQbwJ7asa3l0-s3IV-48" value="" style="endArrow=none;dashed=1;html=1;dashPattern=1 3;strokeWidth=2;rounded=0;entryX=1;entryY=0.5;entryDx=0;entryDy=0;" edge="1" parent="1">
          <mxGeometry width="50" height="50" relative="1" as="geometry">
            <mxPoint x="-664" y="396.5" as="sourcePoint" />
            <mxPoint x="-663" y="261.5" as="targetPoint" />
          </mxGeometry>
        </mxCell>
        <mxCell id="VE9qQbwJ7asa3l0-s3IV-49" value="Join-room : livestream module" style="text;strokeColor=none;align=center;fillColor=none;html=1;verticalAlign=middle;whiteSpace=wrap;rounded=0;" vertex="1" parent="1">
          <mxGeometry x="-720" y="75" width="100" height="30" as="geometry" />
        </mxCell>
        <mxCell id="VE9qQbwJ7asa3l0-s3IV-50" value="RoomModule/&lt;br&gt;LiveStream" style="rounded=0;whiteSpace=wrap;html=1;" vertex="1" parent="1">
          <mxGeometry x="-570" y="200" width="90" height="30" as="geometry" />
        </mxCell>
        <mxCell id="VE9qQbwJ7asa3l0-s3IV-51" value="" style="rounded=0;whiteSpace=wrap;html=1;rotation=90;" vertex="1" parent="1">
          <mxGeometry x="-735.87" y="497.86" width="426.21" height="20" as="geometry" />
        </mxCell>
        <mxCell id="VE9qQbwJ7asa3l0-s3IV-52" value="" style="endArrow=classic;html=1;rounded=0;entryX=0.879;entryY=1.1;entryDx=0;entryDy=0;entryPerimeter=0;" edge="1" parent="1" target="VE9qQbwJ7asa3l0-s3IV-53">
          <mxGeometry width="50" height="50" relative="1" as="geometry">
            <mxPoint x="-663.5" y="291.5" as="sourcePoint" />
            <mxPoint x="-540" y="292" as="targetPoint" />
          </mxGeometry>
        </mxCell>
        <mxCell id="VE9qQbwJ7asa3l0-s3IV-53" value="1. room.emit(&#39;join-room&#39;)" style="text;strokeColor=none;align=center;fillColor=none;html=1;verticalAlign=middle;whiteSpace=wrap;rounded=0;" vertex="1" parent="1">
          <mxGeometry x="-658.25" y="260" width="146.5" height="30" as="geometry" />
        </mxCell>
        <mxCell id="VE9qQbwJ7asa3l0-s3IV-54" value="" style="endArrow=classic;html=1;rounded=0;entryX=0;entryY=1;entryDx=0;entryDy=0;" edge="1" parent="1" target="VE9qQbwJ7asa3l0-s3IV-60">
          <mxGeometry width="50" height="50" relative="1" as="geometry">
            <mxPoint x="-510" y="352" as="sourcePoint" />
            <mxPoint x="-338.25" y="340" as="targetPoint" />
          </mxGeometry>
        </mxCell>
        <mxCell id="VE9qQbwJ7asa3l0-s3IV-55" value="2.1 getRtpCapabilities()" style="text;strokeColor=none;align=center;fillColor=none;html=1;verticalAlign=middle;whiteSpace=wrap;rounded=0;" vertex="1" parent="1">
          <mxGeometry x="-511.75" y="320" width="146.5" height="30" as="geometry" />
        </mxCell>
        <mxCell id="VE9qQbwJ7asa3l0-s3IV-56" value="" style="endArrow=classic;html=1;rounded=0;entryX=1;entryY=0;entryDx=0;entryDy=0;exitX=1;exitY=1;exitDx=0;exitDy=0;" edge="1" parent="1" source="VE9qQbwJ7asa3l0-s3IV-62" target="VE9qQbwJ7asa3l0-s3IV-60">
          <mxGeometry width="50" height="50" relative="1" as="geometry">
            <mxPoint x="-161.25" y="400" as="sourcePoint" />
            <mxPoint x="-338.25" y="400" as="targetPoint" />
          </mxGeometry>
        </mxCell>
        <mxCell id="VE9qQbwJ7asa3l0-s3IV-57" value="4.&lt;br&gt;. callback({rtpCapabilities})" style="text;strokeColor=none;align=center;fillColor=none;html=1;verticalAlign=middle;whiteSpace=wrap;rounded=0;" vertex="1" parent="1">
          <mxGeometry x="-266.25" y="360" width="146.5" height="30" as="geometry" />
        </mxCell>
        <mxCell id="VE9qQbwJ7asa3l0-s3IV-58" value="RoomModule/&lt;br&gt;MediasoupInterface" style="rounded=0;whiteSpace=wrap;html=1;" vertex="1" parent="1">
          <mxGeometry x="-400" y="200" width="120" height="30" as="geometry" />
        </mxCell>
        <mxCell id="VE9qQbwJ7asa3l0-s3IV-59" value="" style="endArrow=none;dashed=1;html=1;dashPattern=1 3;strokeWidth=2;rounded=0;entryX=0.5;entryY=1;entryDx=0;entryDy=0;startArrow=none;" edge="1" parent="1" source="VE9qQbwJ7asa3l0-s3IV-94" target="VE9qQbwJ7asa3l0-s3IV-58">
          <mxGeometry width="50" height="50" relative="1" as="geometry">
            <mxPoint x="-388.25" y="730" as="sourcePoint" />
            <mxPoint x="-338.25" y="280" as="targetPoint" />
          </mxGeometry>
        </mxCell>
        <mxCell id="VE9qQbwJ7asa3l0-s3IV-60" value="" style="rounded=0;whiteSpace=wrap;html=1;rotation=90;" vertex="1" parent="1">
          <mxGeometry x="-360.87" y="364.38" width="45.25" height="20" as="geometry" />
        </mxCell>
        <mxCell id="VE9qQbwJ7asa3l0-s3IV-61" value="" style="endArrow=none;dashed=1;html=1;dashPattern=1 3;strokeWidth=2;rounded=0;startArrow=none;" edge="1" parent="1" source="VE9qQbwJ7asa3l0-s3IV-68">
          <mxGeometry width="50" height="50" relative="1" as="geometry">
            <mxPoint x="-338.25" y="730" as="sourcePoint" />
            <mxPoint x="-338.25" y="390" as="targetPoint" />
          </mxGeometry>
        </mxCell>
        <mxCell id="VE9qQbwJ7asa3l0-s3IV-62" value="" style="rounded=0;whiteSpace=wrap;html=1;rotation=90;spacing=4;" vertex="1" parent="1">
          <mxGeometry x="-63.63" y="367.87" width="45" height="20" as="geometry" />
        </mxCell>
        <mxCell id="VE9qQbwJ7asa3l0-s3IV-63" value="" style="endArrow=none;dashed=1;html=1;dashPattern=1 3;strokeWidth=2;rounded=0;entryX=1;entryY=0.5;entryDx=0;entryDy=0;exitX=0;exitY=0.5;exitDx=0;exitDy=0;startArrow=none;" edge="1" parent="1" source="VE9qQbwJ7asa3l0-s3IV-75" target="VE9qQbwJ7asa3l0-s3IV-62">
          <mxGeometry width="50" height="50" relative="1" as="geometry">
            <mxPoint x="-68" y="690" as="sourcePoint" />
            <mxPoint x="-68" y="280" as="targetPoint" />
          </mxGeometry>
        </mxCell>
        <mxCell id="VE9qQbwJ7asa3l0-s3IV-64" value="" style="endArrow=classic;html=1;rounded=0;exitX=0;exitY=0.25;exitDx=0;exitDy=0;entryX=0;entryY=1;entryDx=0;entryDy=0;" edge="1" parent="1" source="VE9qQbwJ7asa3l0-s3IV-60" target="VE9qQbwJ7asa3l0-s3IV-62">
          <mxGeometry width="50" height="50" relative="1" as="geometry">
            <mxPoint x="-28.25" y="380" as="sourcePoint" />
            <mxPoint x="21.75" y="330" as="targetPoint" />
          </mxGeometry>
        </mxCell>
        <mxCell id="VE9qQbwJ7asa3l0-s3IV-65" value="3.&lt;br&gt;livestreamSocket.emit&lt;br&gt;(&quot;getRtpCapabilities:&quot;,{userId})" style="text;strokeColor=none;align=center;fillColor=none;html=1;verticalAlign=middle;whiteSpace=wrap;rounded=0;" vertex="1" parent="1">
          <mxGeometry x="-299.5" y="300" width="213" height="30" as="geometry" />
        </mxCell>
        <mxCell id="VE9qQbwJ7asa3l0-s3IV-66" value="" style="endArrow=classic;html=1;rounded=0;" edge="1" parent="1">
          <mxGeometry width="50" height="50" relative="1" as="geometry">
            <mxPoint x="-348.25" y="396" as="sourcePoint" />
            <mxPoint x="-508.25" y="396" as="targetPoint" />
          </mxGeometry>
        </mxCell>
        <mxCell id="VE9qQbwJ7asa3l0-s3IV-67" value="5.&lt;br&gt;. callback({rtpCapabilities})" style="text;strokeColor=none;align=center;fillColor=none;html=1;verticalAlign=middle;whiteSpace=wrap;rounded=0;" vertex="1" parent="1">
          <mxGeometry x="-498.25" y="360" width="146.5" height="30" as="geometry" />
        </mxCell>
        <mxCell id="VE9qQbwJ7asa3l0-s3IV-68" value="" style="rounded=0;whiteSpace=wrap;html=1;rotation=90;" vertex="1" parent="1">
          <mxGeometry x="-365.25" y="446" width="54" height="20" as="geometry" />
        </mxCell>
        <mxCell id="VE9qQbwJ7asa3l0-s3IV-69" value="" style="endArrow=classic;html=1;rounded=0;startArrow=none;" edge="1" parent="1">
          <mxGeometry width="50" height="50" relative="1" as="geometry">
            <mxPoint x="-508.25" y="430" as="sourcePoint" />
            <mxPoint x="-348.25" y="430" as="targetPoint" />
          </mxGeometry>
        </mxCell>
        <mxCell id="VE9qQbwJ7asa3l0-s3IV-70" value="" style="endArrow=classic;html=1;rounded=0;exitX=1;exitY=0.5;exitDx=0;exitDy=0;" edge="1" parent="1" source="VE9qQbwJ7asa3l0-s3IV-68">
          <mxGeometry width="50" height="50" relative="1" as="geometry">
            <mxPoint x="-298.25" y="440" as="sourcePoint" />
            <mxPoint x="-508.25" y="483" as="targetPoint" />
          </mxGeometry>
        </mxCell>
        <mxCell id="VE9qQbwJ7asa3l0-s3IV-71" value="7.&lt;br&gt;resolve/ reject" style="text;strokeColor=none;align=center;fillColor=none;html=1;verticalAlign=middle;whiteSpace=wrap;rounded=0;rotation=0;" vertex="1" parent="1">
          <mxGeometry x="-498.25" y="446" width="146.5" height="30" as="geometry" />
        </mxCell>
        <mxCell id="VE9qQbwJ7asa3l0-s3IV-72" value="" style="rounded=0;whiteSpace=wrap;html=1;rotation=90;" vertex="1" parent="1">
          <mxGeometry x="-434.41" y="616.17" width="192.32" height="20" as="geometry" />
        </mxCell>
        <mxCell id="VE9qQbwJ7asa3l0-s3IV-73" value="" style="endArrow=classic;html=1;rounded=0;entryX=0;entryY=0.5;entryDx=0;entryDy=0;" edge="1" parent="1" target="VE9qQbwJ7asa3l0-s3IV-72">
          <mxGeometry width="50" height="50" relative="1" as="geometry">
            <mxPoint x="-508.25" y="530" as="sourcePoint" />
            <mxPoint x="-248.25" y="407" as="targetPoint" />
          </mxGeometry>
        </mxCell>
        <mxCell id="VE9qQbwJ7asa3l0-s3IV-74" value="8.&lt;br&gt;consumeAll()" style="text;strokeColor=none;align=center;fillColor=none;html=1;verticalAlign=middle;whiteSpace=wrap;rounded=0;" vertex="1" parent="1">
          <mxGeometry x="-504" y="496" width="146.5" height="30" as="geometry" />
        </mxCell>
        <mxCell id="VE9qQbwJ7asa3l0-s3IV-75" value="" style="rounded=0;whiteSpace=wrap;html=1;rotation=90;" vertex="1" parent="1">
          <mxGeometry x="-58.57" y="537.0699999999999" width="34.13" height="20" as="geometry" />
        </mxCell>
        <mxCell id="VE9qQbwJ7asa3l0-s3IV-76" value="" style="endArrow=classic;html=1;rounded=0;exitX=0;exitY=0;exitDx=0;exitDy=0;entryX=0;entryY=1;entryDx=0;entryDy=0;" edge="1" parent="1" source="VE9qQbwJ7asa3l0-s3IV-72" target="VE9qQbwJ7asa3l0-s3IV-75">
          <mxGeometry width="50" height="50" relative="1" as="geometry">
            <mxPoint x="-298.25" y="440" as="sourcePoint" />
            <mxPoint x="-248.25" y="390" as="targetPoint" />
          </mxGeometry>
        </mxCell>
        <mxCell id="VE9qQbwJ7asa3l0-s3IV-77" value="6.&lt;br&gt;createDevice()" style="text;strokeColor=none;align=center;fillColor=none;html=1;verticalAlign=middle;whiteSpace=wrap;rounded=0;" vertex="1" parent="1">
          <mxGeometry x="-504" y="400" width="145.75" height="20" as="geometry" />
        </mxCell>
        <mxCell id="VE9qQbwJ7asa3l0-s3IV-78" value="9.&lt;br&gt;livestreamSocket.emit(&quot;consume-all&quot;)" style="text;strokeColor=none;align=center;fillColor=none;html=1;verticalAlign=middle;whiteSpace=wrap;rounded=0;" vertex="1" parent="1">
          <mxGeometry x="-309.37" y="490" width="232.75" height="36" as="geometry" />
        </mxCell>
        <mxCell id="VE9qQbwJ7asa3l0-s3IV-79" value="" style="endArrow=classic;html=1;rounded=0;exitX=1;exitY=1;exitDx=0;exitDy=0;" edge="1" parent="1" source="VE9qQbwJ7asa3l0-s3IV-75">
          <mxGeometry width="50" height="50" relative="1" as="geometry">
            <mxPoint x="-398.25" y="480" as="sourcePoint" />
            <mxPoint x="-318.25" y="564" as="targetPoint" />
          </mxGeometry>
        </mxCell>
        <mxCell id="VE9qQbwJ7asa3l0-s3IV-80" value="10.&lt;br&gt;callback({producers})" style="text;strokeColor=none;align=center;fillColor=none;html=1;verticalAlign=middle;whiteSpace=wrap;rounded=0;" vertex="1" parent="1">
          <mxGeometry x="-309.37" y="529.0699999999999" width="232.75" height="36" as="geometry" />
        </mxCell>
        <mxCell id="VE9qQbwJ7asa3l0-s3IV-81" value="" style="endArrow=classic;html=1;rounded=0;entryX=0;entryY=1;entryDx=0;entryDy=0;" edge="1" parent="1" target="VE9qQbwJ7asa3l0-s3IV-84">
          <mxGeometry width="50" height="50" relative="1" as="geometry">
            <mxPoint x="-328.25" y="640" as="sourcePoint" />
            <mxPoint x="-348.25" y="479.07" as="targetPoint" />
          </mxGeometry>
        </mxCell>
        <mxCell id="VE9qQbwJ7asa3l0-s3IV-82" value="" style="swimlane;startSize=0;" vertex="1" parent="1">
          <mxGeometry x="-418.25" y="580" width="420" height="170" as="geometry" />
        </mxCell>
        <mxCell id="VE9qQbwJ7asa3l0-s3IV-83" value="Loop All Producers" style="text;strokeColor=none;align=center;fillColor=none;html=1;verticalAlign=middle;whiteSpace=wrap;rounded=0;" vertex="1" parent="VE9qQbwJ7asa3l0-s3IV-82">
          <mxGeometry x="6.5" y="6" width="60" height="30" as="geometry" />
        </mxCell>
        <mxCell id="VE9qQbwJ7asa3l0-s3IV-84" value="" style="rounded=0;whiteSpace=wrap;html=1;rotation=90;" vertex="1" parent="VE9qQbwJ7asa3l0-s3IV-82">
          <mxGeometry x="335.77" y="90" width="81.97" height="20" as="geometry" />
        </mxCell>
        <mxCell id="VE9qQbwJ7asa3l0-s3IV-85" value="12.&lt;br&gt;callback({&lt;br&gt;consumerId,&lt;br&gt;producerId,&lt;br&gt;consumerKind,&lt;br&gt;rtpParameters})" style="text;strokeColor=none;align=center;fillColor=none;html=1;verticalAlign=middle;whiteSpace=wrap;rounded=0;" vertex="1" parent="VE9qQbwJ7asa3l0-s3IV-82">
          <mxGeometry x="108.88" y="82" width="232.75" height="36" as="geometry" />
        </mxCell>
        <mxCell id="VE9qQbwJ7asa3l0-s3IV-86" value="11.&lt;br&gt;livestreamSocket.emit(&quot;consume&quot;, {rtpCapability, userId, transportId, producerId}" style="text;strokeColor=none;align=center;fillColor=none;html=1;verticalAlign=middle;whiteSpace=wrap;rounded=0;" vertex="1" parent="1">
          <mxGeometry x="-309.37" y="592" width="232.75" height="36" as="geometry" />
        </mxCell>
        <mxCell id="VE9qQbwJ7asa3l0-s3IV-87" value="" style="endArrow=classic;html=1;rounded=0;exitX=1;exitY=1;exitDx=0;exitDy=0;entryX=1;entryY=0;entryDx=0;entryDy=0;" edge="1" parent="1" source="VE9qQbwJ7asa3l0-s3IV-84" target="VE9qQbwJ7asa3l0-s3IV-72">
          <mxGeometry width="50" height="50" relative="1" as="geometry">
            <mxPoint x="-368.25" y="652" as="sourcePoint" />
            <mxPoint x="-328.25" y="676" as="targetPoint" />
          </mxGeometry>
        </mxCell>
        <mxCell id="VE9qQbwJ7asa3l0-s3IV-88" value="" style="endArrow=classic;html=1;rounded=0;exitX=1;exitY=1;exitDx=0;exitDy=0;entryX=1;entryY=0;entryDx=0;entryDy=0;" edge="1" parent="1" source="VE9qQbwJ7asa3l0-s3IV-72" target="VE9qQbwJ7asa3l0-s3IV-51">
          <mxGeometry width="50" height="50" relative="1" as="geometry">
            <mxPoint x="-368.25" y="630" as="sourcePoint" />
            <mxPoint x="-318.25" y="580" as="targetPoint" />
          </mxGeometry>
        </mxCell>
        <mxCell id="VE9qQbwJ7asa3l0-s3IV-89" value="13.&lt;br&gt;resolve/ reject" style="text;strokeColor=none;align=center;fillColor=none;html=1;verticalAlign=middle;whiteSpace=wrap;rounded=0;rotation=0;" vertex="1" parent="1">
          <mxGeometry x="-511.75" y="690" width="146.5" height="30" as="geometry" />
        </mxCell>
        <mxCell id="VE9qQbwJ7asa3l0-s3IV-90" value="" style="endArrow=none;dashed=1;html=1;dashPattern=1 3;strokeWidth=2;rounded=0;entryX=1;entryY=0.5;entryDx=0;entryDy=0;exitX=0;exitY=0.5;exitDx=0;exitDy=0;" edge="1" parent="1" source="VE9qQbwJ7asa3l0-s3IV-72" target="VE9qQbwJ7asa3l0-s3IV-68">
          <mxGeometry width="50" height="50" relative="1" as="geometry">
            <mxPoint x="-508.25" y="430" as="sourcePoint" />
            <mxPoint x="-458.25" y="380" as="targetPoint" />
          </mxGeometry>
        </mxCell>
        <mxCell id="VE9qQbwJ7asa3l0-s3IV-91" value="" style="rounded=0;whiteSpace=wrap;html=1;rotation=90;" vertex="1" parent="1">
          <mxGeometry x="-691" y="255" width="54" height="20" as="geometry" />
        </mxCell>
        <mxCell id="VE9qQbwJ7asa3l0-s3IV-92" value="" style="endArrow=none;dashed=1;html=1;dashPattern=1 3;strokeWidth=2;rounded=0;entryX=1;entryY=0.5;entryDx=0;entryDy=0;exitX=0;exitY=0.5;exitDx=0;exitDy=0;" edge="1" parent="1" source="VE9qQbwJ7asa3l0-s3IV-84" target="VE9qQbwJ7asa3l0-s3IV-75">
          <mxGeometry width="50" height="50" relative="1" as="geometry">
            <mxPoint x="-41.25" y="630" as="sourcePoint" />
            <mxPoint x="-458.25" y="380" as="targetPoint" />
          </mxGeometry>
        </mxCell>
        <mxCell id="VE9qQbwJ7asa3l0-s3IV-93" value="" style="endArrow=none;dashed=1;html=1;dashPattern=1 3;strokeWidth=2;rounded=0;entryX=1;entryY=0.5;entryDx=0;entryDy=0;startArrow=none;" edge="1" parent="1" source="VE9qQbwJ7asa3l0-s3IV-60" target="VE9qQbwJ7asa3l0-s3IV-94">
          <mxGeometry width="50" height="50" relative="1" as="geometry">
            <mxPoint x="-338" y="370" as="sourcePoint" />
            <mxPoint x="-338.25" y="280" as="targetPoint" />
          </mxGeometry>
        </mxCell>
        <mxCell id="VE9qQbwJ7asa3l0-s3IV-94" value="" style="rounded=0;whiteSpace=wrap;html=1;rotation=90;" vertex="1" parent="1">
          <mxGeometry x="-353.5" y="299" width="27" height="20" as="geometry" />
        </mxCell>
        <mxCell id="VE9qQbwJ7asa3l0-s3IV-95" value="" style="endArrow=classic;html=1;rounded=0;exitX=0;exitY=0;exitDx=0;exitDy=0;entryX=0;entryY=1;entryDx=0;entryDy=0;" edge="1" parent="1" source="VE9qQbwJ7asa3l0-s3IV-51" target="VE9qQbwJ7asa3l0-s3IV-94">
          <mxGeometry width="50" height="50" relative="1" as="geometry">
            <mxPoint x="-360" y="460" as="sourcePoint" />
            <mxPoint x="-310" y="410" as="targetPoint" />
          </mxGeometry>
        </mxCell>
        <mxCell id="VE9qQbwJ7asa3l0-s3IV-96" value="2.0&lt;br&gt;new MediasoupInterface()" style="text;strokeColor=none;align=center;fillColor=none;html=1;verticalAlign=middle;whiteSpace=wrap;rounded=0;" vertex="1" parent="1">
          <mxGeometry x="-507.37" y="260" width="146.5" height="30" as="geometry" />
        </mxCell>
      </root>
    </mxGraphModel>
  </diagram>
</mxfile>
